<?xml version="1.0" encoding="utf-8"?>
<!-- Generator: Adobe Illustrator 22.0.1, SVG Export Plug-In . SVG Version: 6.00 Build 0)  -->
<svg version="1.1" id="Layer_1" xmlns="http://www.w3.org/2000/svg" xmlns:xlink="http://www.w3.org/1999/xlink" x="0px" y="0px"
	 viewBox="0 0 256 256" style="enable-background:new 0 0 256 256;" xml:space="preserve">
<style type="text/css">
	.st0{fill:#3A312A;}
	.st1{fill:#FCE8CB;}
	.st2{fill:#8AC5DC;}
	.st3{fill:#ED6E7A;}
	.st4{fill:#D7E057;}
	.st5{fill:#87796F;}
	.st6{fill:#695B51;}
	.st7{fill:#EF6D7A;}
	.st8{fill:#D6DF58;}
	.st9{fill:#6A5C52;}
	.st10{fill:#F16C7A;}
	.st11{fill:#8AC6DD;}
	.st12{fill:#D34E5C;}
	.st13{fill:#B9C239;}
	.st14{fill:#6CA8BF;}
	.st15{fill:#89C4DB;}
	.st16{fill:#D5DE58;}
	.st17{fill:#DECAAD;}
	.st18{fill:#D5DC57;}
	.st19{fill:#8AC3DA;}
	.st20{fill:#D4DB56;}
	.st21{fill:#EA6D7A;}
	.st22{fill:#FAE6CA;}
	.st23{fill:#EB6E7A;}
	.st24{fill:#F8E4C8;}
	.st25{fill:#E96C7A;}
	.st26{fill:#8AC2D9;}
	.st27{fill:#E86C7A;}
	.st28{fill:#8AC1D8;}
	.st29{fill:#D4DA55;}
</style>
<g>
	<g>
		<g>
			<polygon class="st3" points="16.995,17 16.995,74.399 16.995,88.601 16.995,239 79.327,206.67 79.327,49.33 			"/>
		</g>
	</g>
	<g>
		<g>
			<path class="st0" d="M80.018,47.999l-62.332-32.33c-0.466-0.241-1.021-0.223-1.47,0.05c-0.447,0.272-0.721,0.758-0.721,1.282
				v57.399c0,0.829,0.672,1.5,1.5,1.5s1.5-0.671,1.5-1.5V19.468l59.332,30.774v155.517l-59.332,30.774V88.601
				c0-0.829-0.672-1.5-1.5-1.5s-1.5,0.671-1.5,1.5V239c0,0.524,0.273,1.01,0.721,1.282c0.239,0.145,0.509,0.218,0.779,0.218
				c0.236,0,0.474-0.056,0.69-0.168l62.332-32.33c0.497-0.258,0.81-0.771,0.81-1.332V49.33
				C80.827,48.77,80.515,48.256,80.018,47.999z"/>
		</g>
	</g>
	<g>
		<g>
			<polygon class="st8" points="150.863,45.023 138.473,38.597 96.834,17 96.834,239 159.166,206.67 159.166,49.33 			"/>
		</g>
	</g>
	<g>
		<g>
			<path class="st0" d="M159.856,47.999l-8.304-4.307c-0.733-0.381-1.64-0.094-2.022,0.641c-0.381,0.735-0.094,1.641,0.642,2.022
				l7.494,3.887v155.517l-59.332,30.774V19.468l39.448,20.461c0.735,0.383,1.641,0.095,2.021-0.641
				c0.382-0.735,0.095-1.641-0.641-2.022L97.524,15.668c-0.466-0.241-1.021-0.223-1.47,0.05c-0.447,0.272-0.721,0.758-0.721,1.282
				v222c0,0.524,0.273,1.01,0.721,1.282c0.239,0.145,0.509,0.218,0.779,0.218c0.236,0,0.474-0.056,0.69-0.168l62.332-32.33
				c0.497-0.258,0.81-0.771,0.81-1.332V49.33C160.666,48.77,160.354,48.256,159.856,47.999z"/>
		</g>
	</g>
	<g>
		<g>
			<polygon class="st2" points="176.673,17 176.673,239 239.005,206.67 239.005,49.33 			"/>
		</g>
	</g>
	<g>
		<g>
			<path class="st0" d="M239.695,47.999l-62.332-32.33c-0.465-0.241-1.022-0.223-1.47,0.05c-0.447,0.272-0.721,0.758-0.721,1.282
				v222c0,0.524,0.273,1.01,0.721,1.282c0.239,0.145,0.509,0.218,0.779,0.218c0.236,0,0.474-0.056,0.69-0.168l62.332-32.33
				c0.497-0.258,0.81-0.771,0.81-1.332V49.33C240.505,48.77,240.192,48.256,239.695,47.999z M237.505,205.758l-59.332,30.774V19.468
				l59.332,30.774V205.758z"/>
		</g>
	</g>
	<g>
		<g>
			<path class="st14" d="M178.17,19.47v7.78l40.866,21.194c2.128,1.104,3.464,3.301,3.464,5.698v147.716
				c0,2.397-1.336,4.595-3.464,5.698L178.17,228.75v7.78l59.33-30.77V50.24L178.17,19.47z"/>
		</g>
	</g>
</g>
</svg>
